<mxfile host="app.diagrams.net" modified="2024-03-03T15:58:10.403Z" agent="Mozilla/5.0 (X11; Linux x86_64) AppleWebKit/537.36 (KHTML, like Gecko) Chrome/109.0.0.0 Safari/537.36" version="24.0.1" etag="avsR3WSQv8XWHT5roA8c" type="github">
  <diagram name="Страница — 1" id="Ngarzt5kPR1Pm0qr3LBb">
    <mxGraphModel>
      <root>
        <mxCell id="0" />
        <mxCell id="1" parent="0" />
      </root>
    </mxGraphModel>
  </diagram>
</mxfile>
